<?xml version="1.0" standalone="no"?><!DOCTYPE svg PUBLIC "-//W3C//DTD SVG 1.1//EN" "http://www.w3.org/Graphics/SVG/1.1/DTD/svg11.dtd"><svg t="1755163995449" class="icon" viewBox="0 0 1024 1024" version="1.1" xmlns="http://www.w3.org/2000/svg" p-id="14972" xmlns:xlink="http://www.w3.org/1999/xlink" width="200" height="200"><path d="M824.232229 0.497371H195.437714a92.745143 92.745143 0 0 0-92.452571 92.452572V906.678857a92.745143 92.745143 0 0 0 92.452571 92.452572h633.417143a92.745143 92.745143 0 0 0 92.452572-92.452572V88.356571C916.6848 37.449143 875.081143 0.497371 824.232229 0.497371zM643.920457 42.130286h92.452572v157.169371l-46.226286-46.226286-46.226286 46.226286V42.130286zM283.296914 948.282514h-92.452571c-23.113143 0-46.255543-18.490514-46.255543-46.226285V88.356571c0-23.113143 18.490514-46.226286 46.226286-46.226285h92.452571v906.152228z m587.1616-46.226285c0 23.113143-18.490514 46.226286-46.226285 46.226285H329.5232V42.130286h272.764343v272.764343l92.452571-92.452572 92.481829 92.452572V42.130286h46.226286c23.113143 0 46.226286 18.490514 46.226285 46.226285v813.699658h-9.216z" fill="#2c2c2c" p-id="14973"></path></svg>