<?xml version="1.0" standalone="no"?><!DOCTYPE svg PUBLIC "-//W3C//DTD SVG 1.1//EN" "http://www.w3.org/Graphics/SVG/1.1/DTD/svg11.dtd"><svg t="1755163908451" class="icon" viewBox="0 0 1024 1024" version="1.1" xmlns="http://www.w3.org/2000/svg" p-id="12867" xmlns:xlink="http://www.w3.org/1999/xlink" width="200" height="200"><path d="M902.649173 143.36h-105.25696v171.997867H224.692907V143.36H121.350827c-21.531307 0-39.113387 17.4592-39.113387 38.99392v799.361707c0 21.53472 17.58208 38.874453 39.113387 38.874453h781.298346c21.531307 0 39.113387-17.4592 39.113387-38.99392V182.227627C941.643093 160.699733 924.18048 143.36 902.649173 143.36z m-86.838613 333.472427l-338.85184 413.25568c1.55648 5.147307-6.099627 5.860693-11.24352 1.672533l-246.521173-201.065813c-5.147307-4.18816-5.98016-11.840853-1.672534-16.858454l41.147734-50.121386c4.18816-5.14048 11.840853-5.860693 16.984746-1.672534l186.95168 154.0608 289.815894-353.45408c4.307627-7.17824 11.844267-7.89504 16.98816-3.70688l47.844693 38.877867c5.133653 4.17792 8.123733 8.127147-1.44384 19.012267zM658.643627 93.119147v-31.573334C658.643627 29.484373 632.449707 3.413333 600.272213 3.413333h-176.902826c-32.17408 0-58.374827 26.077867-58.374827 58.13248v31.573334H296.342187v156.934826H725.981867V93.119147h-67.33824z m-146.52416 99.280213c-35.64544 0-64.354987-28.706133-64.354987-64.11264 0-35.403093 28.822187-64.109227 64.354987-64.109227 35.638613 0 64.351573 28.706133 64.351573 64.109227 0.119467 40.42752-28.709547 64.11264-64.351573 64.11264z" fill="#040000" p-id="12868"></path></svg>