<?xml version="1.0" standalone="no"?><!DOCTYPE svg PUBLIC "-//W3C//DTD SVG 1.1//EN" "http://www.w3.org/Graphics/SVG/1.1/DTD/svg11.dtd"><svg t="1755163755556" class="icon" viewBox="0 0 1024 1024" version="1.1" xmlns="http://www.w3.org/2000/svg" p-id="3900" xmlns:xlink="http://www.w3.org/1999/xlink" width="200" height="200"><path d="M159.53 462.74h101v101h-101v-101M109 412.25v202h202v-202z m0 0M765.48 159.77h101v101h-101v-101m0 303h101v101h-101v-101m0 303h101v101h-101v-101M311 488v50.49h151.51v303H715v75.71h202v-202H715V791H513V538.48h202v75.74h202v-202H715V488H513V235.51h202v75.75h202v-202H715V185H462.51v303z m0 0" fill="#666666" p-id="3901"></path></svg>